# Blender v2.93.1 OBJ File: 'Room1.blend'
# www.blender.org
mtllib Columns.mtl
o Columns_Plane.014
v -3.303483 2.682378 -3.278720
v -3.278720 2.682378 -3.303483
v -3.244895 2.682378 -3.312546
v -3.211069 2.682378 -3.303483
v -3.186307 2.682378 -3.278720
v -3.177243 2.682378 -3.244895
v -3.186307 2.682378 -3.211069
v -3.211069 2.682378 -3.186307
v -3.244895 2.682378 -3.177243
v -3.278720 2.682378 -3.186307
v -3.303483 2.682378 -3.211069
v -3.312546 2.682378 -3.244895
v -3.303483 -0.658344 -3.278720
v -3.278720 -0.658344 -3.303483
v -3.244895 -0.658344 -3.312546
v -3.211069 -0.658344 -3.303483
v -3.186307 -0.658344 -3.278720
v -3.177243 -0.658344 -3.244895
v -3.186307 -0.658344 -3.211069
v -3.211069 -0.658344 -3.186307
v -3.244895 -0.658344 -3.177243
v -3.278720 -0.658344 -3.186307
v -3.303483 -0.658344 -3.211069
v -3.312546 -0.658344 -3.244895
v 3.303483 2.682378 -3.278720
v 3.278720 2.682378 -3.303483
v 3.244895 2.682378 -3.312546
v 3.211069 2.682378 -3.303483
v 3.186307 2.682378 -3.278720
v 3.177243 2.682378 -3.244895
v 3.186307 2.682378 -3.211069
v 3.211069 2.682378 -3.186307
v 3.244895 2.682378 -3.177243
v 3.278720 2.682378 -3.186307
v 3.303483 2.682378 -3.211069
v 3.312546 2.682378 -3.244895
v 3.303483 -0.658344 -3.278720
v 3.278720 -0.658344 -3.303483
v 3.244895 -0.658344 -3.312546
v 3.211069 -0.658344 -3.303483
v 3.186307 -0.658344 -3.278720
v 3.177243 -0.658344 -3.244895
v 3.186307 -0.658344 -3.211069
v 3.211069 -0.658344 -3.186307
v 3.244895 -0.658344 -3.177243
v 3.278720 -0.658344 -3.186307
v 3.303483 -0.658344 -3.211069
v 3.312546 -0.658344 -3.244895
v -3.303483 2.682378 3.278720
v -3.278720 2.682378 3.303483
v -3.244895 2.682378 3.312546
v -3.211069 2.682378 3.303483
v -3.186307 2.682378 3.278720
v -3.177243 2.682378 3.244895
v -3.186307 2.682378 3.211069
v -3.211069 2.682378 3.186307
v -3.244895 2.682378 3.177243
v -3.278720 2.682378 3.186307
v -3.303483 2.682378 3.211069
v -3.312546 2.682378 3.244895
v -3.303483 -0.658344 3.278720
v -3.278720 -0.658344 3.303483
v -3.244895 -0.658344 3.312546
v -3.211069 -0.658344 3.303483
v -3.186307 -0.658344 3.278720
v -3.177243 -0.658344 3.244895
v -3.186307 -0.658344 3.211069
v -3.211069 -0.658344 3.186307
v -3.244895 -0.658344 3.177243
v -3.278720 -0.658344 3.186307
v -3.303483 -0.658344 3.211069
v -3.312546 -0.658344 3.244895
v 3.303483 2.682378 3.278720
v 3.278720 2.682378 3.303483
v 3.244895 2.682378 3.312546
v 3.211069 2.682378 3.303483
v 3.186307 2.682378 3.278720
v 3.177243 2.682378 3.244895
v 3.186307 2.682378 3.211069
v 3.211069 2.682378 3.186307
v 3.244895 2.682378 3.177243
v 3.278720 2.682378 3.186307
v 3.303483 2.682378 3.211069
v 3.312546 2.682378 3.244895
v 3.303483 -0.658344 3.278720
v 3.278720 -0.658344 3.303483
v 3.244895 -0.658344 3.312546
v 3.211069 -0.658344 3.303483
v 3.186307 -0.658344 3.278720
v 3.177243 -0.658344 3.244895
v 3.186307 -0.658344 3.211069
v 3.211069 -0.658344 3.186307
v 3.244895 -0.658344 3.177243
v 3.278720 -0.658344 3.186307
v 3.303483 -0.658344 3.211069
v 3.312546 -0.658344 3.244895
vt 0.490405 0.870435
vt 0.490405 0.152629
vt 0.483380 0.152629
vt 0.483380 0.870435
vt 0.500000 0.870435
vt 0.500000 0.152629
vt 0.509595 0.870435
vt 0.509595 0.152629
vt 0.516620 0.870435
vt 0.516620 0.152629
vt 0.500000 0.870435
vt 0.500000 0.152629
vt 0.509595 0.152629
vt 0.509595 0.870435
vt 0.490405 0.870435
vt 0.490405 0.152629
vt 0.483380 0.870435
vt 0.483380 0.152629
vt 0.500000 0.870435
vt 0.500000 0.152629
vt 0.509595 0.152629
vt 0.509595 0.870435
vt 0.490405 0.870435
vt 0.490405 0.152629
vt 0.483380 0.870435
vt 0.483380 0.152629
vt 0.500000 0.870435
vt 0.500000 0.152629
vt 0.490405 0.152629
vt 0.490405 0.870435
vt 0.509595 0.870435
vt 0.509595 0.152629
vt 0.490405 0.870435
vt 0.483380 0.870435
vt 0.483380 0.152629
vt 0.490405 0.152629
vt 0.500000 0.870435
vt 0.500000 0.152629
vt 0.509595 0.870435
vt 0.509595 0.152629
vt 0.516620 0.870435
vt 0.516620 0.152629
vt 0.500000 0.870435
vt 0.509595 0.870435
vt 0.509595 0.152629
vt 0.500000 0.152629
vt 0.490405 0.870435
vt 0.490405 0.152629
vt 0.483380 0.870435
vt 0.483380 0.152629
vt 0.500000 0.870435
vt 0.509595 0.870435
vt 0.509595 0.152629
vt 0.500000 0.152629
vt 0.490405 0.870435
vt 0.490405 0.152629
vt 0.483380 0.870435
vt 0.483380 0.152629
vt 0.500000 0.870435
vt 0.490405 0.870435
vt 0.490405 0.152629
vt 0.500000 0.152629
vt 0.509595 0.870435
vt 0.509595 0.152629
vt 0.490405 0.870435
vt 0.483380 0.870435
vt 0.483380 0.152629
vt 0.490405 0.152629
vt 0.500000 0.870435
vt 0.500000 0.152629
vt 0.509595 0.870435
vt 0.509595 0.152629
vt 0.516620 0.870435
vt 0.516620 0.152629
vt 0.500000 0.870435
vt 0.509595 0.870435
vt 0.509595 0.152629
vt 0.500000 0.152629
vt 0.490405 0.870435
vt 0.490405 0.152629
vt 0.483380 0.870435
vt 0.483380 0.152629
vt 0.500000 0.870435
vt 0.509595 0.870435
vt 0.509595 0.152629
vt 0.500000 0.152629
vt 0.490405 0.870435
vt 0.490405 0.152629
vt 0.483380 0.870435
vt 0.483380 0.152629
vt 0.500000 0.870435
vt 0.490405 0.870435
vt 0.490405 0.152629
vt 0.500000 0.152629
vt 0.509595 0.870435
vt 0.509595 0.152629
vt 0.490405 0.870435
vt 0.490405 0.152629
vt 0.483380 0.152629
vt 0.483380 0.870435
vt 0.500000 0.870435
vt 0.500000 0.152629
vt 0.509595 0.870435
vt 0.509595 0.152629
vt 0.516620 0.870435
vt 0.516620 0.152629
vt 0.500000 0.870435
vt 0.500000 0.152629
vt 0.509595 0.152629
vt 0.509595 0.870435
vt 0.490405 0.870435
vt 0.490405 0.152629
vt 0.483380 0.870435
vt 0.483380 0.152629
vt 0.500000 0.870435
vt 0.500000 0.152629
vt 0.509595 0.152629
vt 0.509595 0.870435
vt 0.490405 0.870435
vt 0.490405 0.152629
vt 0.483380 0.870435
vt 0.483380 0.152629
vt 0.500000 0.870435
vt 0.500000 0.152629
vt 0.490405 0.152629
vt 0.490405 0.870435
vt 0.509595 0.870435
vt 0.509595 0.152629
vn -0.7071 0.0000 -0.7071
vn -0.2588 0.0000 -0.9659
vn 0.2588 0.0000 -0.9659
vn 0.7071 0.0000 -0.7071
vn 0.9659 0.0000 -0.2588
vn 0.9659 0.0000 0.2588
vn 0.7071 0.0000 0.7071
vn 0.2588 0.0000 0.9659
vn -0.2588 0.0000 0.9659
vn -0.7071 0.0000 0.7071
vn -0.9659 0.0000 0.2588
vn -0.9659 0.0000 -0.2588
usemtl MaterialColumn
s off
f 2/1/1 14/2/1 13/3/1 1/4/1
f 3/5/2 15/6/2 14/2/2 2/1/2
f 4/7/3 16/8/3 15/6/3 3/5/3
f 5/9/4 17/10/4 16/8/4 4/7/4
f 6/11/5 18/12/5 17/13/5 5/14/5
f 7/15/6 19/16/6 18/12/6 6/11/6
f 8/17/7 20/18/7 19/16/7 7/15/7
f 9/19/8 21/20/8 20/21/8 8/22/8
f 10/23/9 22/24/9 21/20/9 9/19/9
f 11/25/10 23/26/10 22/24/10 10/23/10
f 12/27/11 24/28/11 23/29/11 11/30/11
f 1/31/12 13/32/12 24/28/12 12/27/12
f 26/33/4 25/34/4 37/35/4 38/36/4
f 27/37/3 26/33/3 38/36/3 39/38/3
f 28/39/2 27/37/2 39/38/2 40/40/2
f 29/41/1 28/39/1 40/40/1 41/42/1
f 30/43/12 29/44/12 41/45/12 42/46/12
f 31/47/11 30/43/11 42/46/11 43/48/11
f 32/49/10 31/47/10 43/48/10 44/50/10
f 33/51/9 32/52/9 44/53/9 45/54/9
f 34/55/8 33/51/8 45/54/8 46/56/8
f 35/57/7 34/55/7 46/56/7 47/58/7
f 36/59/6 35/60/6 47/61/6 48/62/6
f 25/63/5 36/59/5 48/62/5 37/64/5
f 50/65/10 49/66/10 61/67/10 62/68/10
f 51/69/9 50/65/9 62/68/9 63/70/9
f 52/71/8 51/69/8 63/70/8 64/72/8
f 53/73/7 52/71/7 64/72/7 65/74/7
f 54/75/6 53/76/6 65/77/6 66/78/6
f 55/79/5 54/75/5 66/78/5 67/80/5
f 56/81/4 55/79/4 67/80/4 68/82/4
f 57/83/3 56/84/3 68/85/3 69/86/3
f 58/87/2 57/83/2 69/86/2 70/88/2
f 59/89/1 58/87/1 70/88/1 71/90/1
f 60/91/12 59/92/12 71/93/12 72/94/12
f 49/95/11 60/91/11 72/94/11 61/96/11
f 74/97/7 86/98/7 85/99/7 73/100/7
f 75/101/8 87/102/8 86/98/8 74/97/8
f 76/103/9 88/104/9 87/102/9 75/101/9
f 77/105/10 89/106/10 88/104/10 76/103/10
f 78/107/11 90/108/11 89/109/11 77/110/11
f 79/111/12 91/112/12 90/108/12 78/107/12
f 80/113/1 92/114/1 91/112/1 79/111/1
f 81/115/2 93/116/2 92/117/2 80/118/2
f 82/119/3 94/120/3 93/116/3 81/115/3
f 83/121/4 95/122/4 94/120/4 82/119/4
f 84/123/5 96/124/5 95/125/5 83/126/5
f 73/127/6 85/128/6 96/124/6 84/123/6
