# Blender v2.93.1 OBJ File: 'Room1.blend'
# www.blender.org
mtllib Walls.mtl
o Wall_Plane.004
v -3.244895 -0.658344 -3.244895
v -3.381717 -0.770058 -3.366652
v -3.244895 2.682378 -3.244895
v -3.381717 2.682378 -3.366652
v 3.244895 -0.658344 -3.244895
v 3.381717 -0.770058 -3.366652
v 3.244895 2.682378 -3.244895
v 3.381717 2.682378 -3.366652
v -3.244895 -0.658344 3.244895
v -3.381717 -0.770058 3.366652
v -3.244895 2.682378 3.244895
v -3.381717 2.682378 3.366652
v 3.244895 -0.658344 3.244895
v 3.381717 -0.770058 3.366652
v 3.244895 2.682378 3.244895
v 3.381717 2.682378 3.366652
vt 1.097658 0.136358
vt -0.097658 0.136358
vt -0.097658 0.732420
vt 1.097658 0.732420
vt 1.097657 0.101601
vt 1.122858 0.086652
vt 1.122858 0.913348
vt 1.097657 0.898399
vt 1.122858 0.732420
vt -0.122858 0.732420
vt -0.122858 0.122642
vt 1.122858 0.122642
vt -0.097658 0.732420
vt -0.097658 0.136358
vt -0.120083 0.122642
vt 1.120083 0.122642
vt 1.120083 0.732420
vt -0.120083 0.732420
vt -0.097658 0.101601
vt -0.122858 0.086652
vt -0.122858 0.913348
vt -0.097658 0.898399
vt 1.122858 0.913348
vt 1.122858 0.086652
vt -0.122858 0.086652
vt -0.122858 0.913348
vt -0.120083 0.122642
vt 1.120083 0.122642
vt 1.120083 0.732420
vt -0.120083 0.732420
vt 1.122858 0.732420
vt 1.122858 0.122642
vt -0.122858 0.122642
vt -0.122858 0.732420
vt 1.097657 0.136358
vt -0.097658 0.136358
vt -0.097658 0.732420
vt 1.097657 0.732420
vt 1.097658 0.136358
vt 1.097658 0.732420
vn -1.0000 0.0000 0.0000
vn 0.0000 1.0000 0.0000
vn 0.0000 0.0000 1.0000
vn 1.0000 0.0000 0.0000
vn 0.0000 -1.0000 0.0000
vn 0.0000 0.0000 -1.0000
usemtl MaterialWall
s 1
f 5/1/1 13/2/1 15/3/1 7/4/1
f 15/5/2 16/6/2 8/7/2 7/8/2
f 8/9/3 4/10/3 2/11/3 6/12/3
f 5/1/3 7/4/3 3/13/3 1/14/3
f 10/15/4 2/16/4 4/17/4 12/18/4
f 11/19/5 12/20/5 4/21/5 3/22/5
f 6/23/5 14/24/5 10/25/5 2/26/5
f 14/27/4 6/28/4 8/29/4 16/30/4
f 3/22/5 4/21/5 8/7/5 7/8/5
f 16/31/6 14/32/6 10/33/6 12/34/6
f 13/35/6 9/36/6 11/37/6 15/38/6
f 11/19/5 15/5/5 16/6/5 12/20/5
f 1/39/1 9/36/1 11/37/1 3/40/1
